<svg version="1.1" id="Layer_1" xmlns="http://www.w3.org/2000/svg" xmlns:xlink="http://www.w3.org/1999/xlink" x="0px" y="0px"
	 viewBox="0 0 437 425.708" enable-background="new 0 0 437 425.708" xml:space="preserve">
<g>
	<circle cx="210" cy="210" r="180" fill="white"/>
	<g>
		<g>
			<path d="M138.75,178.104c19.2246-1.9729,38.6013-9.6619,45.5-36.5c7.2089-28.0451-8.1208-46.3696-32-56.5
				c34.8979-3.6586,69.0408,6.25,68.5,54.25C215.7466,180.1074,172.7102,194.6377,138.75,178.104z"/>
			<path d="M152.75,141.854c-19.8121-8.4991-40.7915-8.7082-55.5,10.5c-14.2113,20.8479-8.1857,42.9152,9.25,60.5
				c-5.9749-18.2529-6.3623-35.3851,2-49.75C118.5758,145.7955,134.3751,139.1667,152.75,141.854z"/>
		</g>
		<g>
			<rect x="94.25" y="223.854" width="7.75" height="37"/>
			<rect x="108.75" y="223.854" width="5" height="37"/>
			<rect x="121.0405" y="223.854" width="214.9595" height="37"/>
		</g>
	</g>
	<path fill="#FD0002" d="M218.5,24.5659c-106.7469,0-193.2825,84.2994-193.2825,188.2881S111.7531,401.1421,218.5,401.1421
		s193.2825-84.2994,193.2825-188.2881S325.2469,24.5659,218.5,24.5659z M218.5,371.6421c-90.0225,0-163-71.0919-163-158.7881
		s72.9775-158.7881,163-158.7881s163,71.0919,163,158.7881S308.5225,371.6421,218.5,371.6421z"/>
</g>
</svg>
